# xmcd
#
# Track frame offsets:
#	150
#	17550
#	43512
#	61162
#	89725
#	118075
#	141925
#	167850
#	186025
#	218512
#
# Disc length: 3264 seconds
#
# Revision: 2
# Processed by: cddbd v1.5.2PL0 Copyright (c) Steve Scherf et al.
# Submitted via: EZCDAudioConverter 8.0.2.1
#
DISCID=880cbe0a
DTITLE=Various Artist - Mơ Khúc Tương Phùng [CD2)
DYEAR=1994
DGENRE=Contemporary Pop
TTITLE0=Nhã Phương - Mơ Khúc Tương Phùng
TTITLE1=Bảo Yến - Giọt mưa thu
TTITLE2=Thanh Long - Mơ hoa
TTITLE3=Hồng Hạnh - Con thuyền không bến
TTITLE4=Thy Nga - Tiếng xưa
TTITLE5=Thanh Long Bass - Sơn nữ ca
TTITLE6=Thu Hà - Đêm thu
TTITLE7=Lê Tuấn - Cô hàng nước
TTITLE8=Khắc Dũng - Lá đổ muôn chiều
TTITLE9=Cẩm Vân - Xuân và tuổi trẻ
EXTD=
EXTT0=
EXTT1=
EXTT2=
EXTT3=
EXTT4=
EXTT5=
EXTT6=
EXTT7=
EXTT8=
EXTT9=
PLAYORDER=
